<?xml version="1.0" encoding="utf-8"?>
<!-- Generator: Adobe Illustrator 27.1.1, SVG Export Plug-In . SVG Version: 6.00 Build 0)  -->
<svg version="1.1" id="Layer_1" xmlns="http://www.w3.org/2000/svg" xmlns:xlink="http://www.w3.org/1999/xlink" x="0px" y="0px"
	 viewBox="0 0 250 105.8" style="enable-background:new 0 0 250 105.8;" xml:space="preserve">
<style type="text/css">
	.st0{fill:#4E5616;}
</style>
<g>
	<g>
		<path class="st0" d="M90.9,21c-0.1,0.1-0.1,0.1-0.1,0.1c-0.3-0.1-0.2-0.3-0.2-0.5c-0.3-0.3-0.5-0.6-0.7-0.9
			c-0.3-0.2-0.6-0.4-0.6-0.7c-1.8-2-3.7-3.9-5.8-5.6c-0.3,0.4-0.5,0.8-0.9,1.1c-0.3,0.3-0.5-0.2-0.6-0.4c-0.1-0.3,0.4-0.8,0.9-1.2
			c-4.7-3.8-10.1-6.7-15.8-8.6c0,0,0.1,0.1,0,0.1c0,0.2-0.1,0.4-0.4,0.4l-0.2-0.3l0.3-0.2C61.8,2.7,56.4,1.8,51,1.8
			C41.4,1.8,32.5,4.4,24.9,9v0.1c-0.1,0.2-0.1,0.4-0.4,0.3c-0.1,0-0.1-0.1-0.1-0.1c-0.8,0.5-1.5,1-2.3,1.5c0.3,0.5,0.3,0.9-0.2,1.5
			c-0.1-0.4-0.4-0.7-0.4-1c-4.1,2.9-7.8,6.4-10.9,10.4c0.3,0.5,0.6,0.9,0.4,1.5c-0.1,0.7-0.1,0.7-1,0.3c0,0.4,0,0.6,0,0.9
			C10,25,10,25.7,9.2,25.7c-0.4,0-0.8-0.2-1.1-0.5c-2.6,3.9-4.5,8.2-5.9,12.6c0,0.1,0,0.2,0,0.2c0,0.1-0.1,0.3-0.2,0.3
			C0.7,43,0,47.9,0,52.9c0,7.6,1.7,14.8,4.6,21.2c0.1-0.2,0.2-0.3,0.4-0.3c0.7-0.2,1.1,0.1,1.5,0.6c0.1,0.2,0.3,0.3,0.4,0.5
			l-1.6,0.7C9.5,84,16,91.1,23.9,96.1c1.3,0.8,1.9,0.4,2.4-0.5c1.4-2.3,0.1-4.7-1.1-6.9c-0.6-1.1-1.1-2.1-1.3-3
			c-0.4-2.4,0.9-5.2,3.4-7.2l-0.3-0.4l4.1-3.2l-0.4-0.7c-0.3-0.4-0.2-0.9,0.2-1.2l8.7-7.1l-0.5-0.8c-0.2-0.3-0.1-0.6,0.2-0.8
			l6.1-4.1c0.1-0.1,0.2-0.1,0.3-0.1c-0.3-0.5,0.4-0.9,0.3-1.4c1.1,0.5,0.3,1.1,0.2,1.6l0.1,0.1l8.3-6.8c0.1-2.8,1.1-5.4,3.1-7.4
			l-0.3-0.4c-0.2-0.3-0.1-0.6,0.2-0.8l2.9-1.9c0.3-0.2,0.6-0.1,0.8,0.2l0.3,0.4c1.5-0.6,3.2-0.9,4.9-0.8c-0.2-0.1-0.3-0.3-0.4-0.6
			c0.1-0.3,0.3-0.5,0.6-0.5c0.4,0,0.6,0.3,0.6,0.7c0,0.2-0.1,0.4-0.2,0.5c1.9,0.3,3.7,1,5.3,2.2c0.1-0.1,0.2-0.1,0.2-0.2
			c-0.1,0.2,0.1,0.3,0.2,0.4c0.8,0.6,1.4,1.4,2,2.2c1.1,1.6,1.7,3.4,1.8,5.3c0.5-0.4,1-0.8,1.5-1.2c0.4-0.4,0.7-0.8,1.3-0.3
			c-0.3,0.1-0.7,0.1-0.6,0.6c-0.2,1.2-1.1,1.6-2,2c-0.1,0-0.1,0.1-0.2,0.1c-0.1,2.8-1.2,5.4-3.1,7.3l0.3,0.4
			c0.2,0.3,0.1,0.6-0.2,0.8l-2.9,1.9c-0.3,0.2-0.6,0.1-0.8-0.2l0,0L69.7,64c-0.1,0.1-0.2,0.1-0.3,0.1c0,0-0.1-0.1-0.1-0.1
			C66.9,65,64.1,65,61.7,64l-9.4,5.2l0.3,0.4c0.2,0.3,0.1,0.6-0.2,0.8L52,70.6l1.8,2.7c0.4,0.6,0.6,1.2,0.5,1.9
			c0.8,0.4,0.4,1,0.4,1.7c-0.4-0.4-0.4-0.8-0.5-1.1c-0.1,0.6-0.4,1.1-0.8,1.5v9.9c0,0.1,0.1,0.2,0.1,0.2c-0.1,0.1-0.1,0.2-0.1,0.2
			v14.2c0,1.9,1.4,2,2,1.9c1.4-0.1,2.7-0.3,4.1-0.5c-0.3-0.3-0.5-0.5-0.9-0.6c0-0.5,1.6-0.6,0.2-1.2c-0.1-0.1-0.1-0.9,0.3-1.2
			c0.2-0.2,0.5-0.4,0.7-0.2c0.3,0.1,0.2,0.4,0.2,0.6c-0.1,0.3-0.3,0.6-0.2,0.7c0.3,0.6-0.2,2,1.3,1.2c0.2-0.1,0.5-0.1,0.4,0.2
			c0,0.1-0.1,0.1-0.1,0.2c8.1-1.7,15.6-5.4,21.9-10.6c-0.1-0.1-0.1-0.2-0.1-0.2c0.1-0.1,0.1-0.3,0.2-0.3c0.2-0.1,0.3,0.1,0.3,0.2
			C95,82.5,102,68.5,102,52.8C102.1,40.8,97.9,29.7,90.9,21z M1,45.6c-0.4-0.1-0.4-0.3-0.3-0.5C0.7,45,0.9,44.8,1,44.7
			c0.1,0.2,0.4,0.3,0.3,0.4C1.3,45.3,1.1,45.5,1,45.6z M55.1,36.3c0.4-0.4,0.4-1,1-1.2c0.5,0.7,0.7,1.3-0.2,1.9
			c-0.3,0.2-0.4,0.3-0.7,0.1C55,36.8,54.8,36.5,55.1,36.3z M54.4,30.9c0.3-0.1,0.5,0.1,0.5,0.3c0.1,0.3-0.2,0.4-0.4,0.5
			c-0.3,0.1-0.5-0.2-0.5-0.4C53.9,31,54.2,30.9,54.4,30.9L54.4,30.9z M50,23.5c0.2-0.5,0.7-0.5,1.1-0.7c0.3-0.2,0.6,0.2,0.5,0.6
			c-0.1,0.6-0.7,0.5-1.1,0.7C50.1,24.1,49.9,23.8,50,23.5L50,23.5z M45.3,16.1c0.1-0.2,0.3-0.3,0.4-0.4c0.1,0.2,0.3,0.3,0.3,0.5
			c0,0.1-0.2,0.3-0.3,0.4C45.5,16.4,45.3,16.3,45.3,16.1z M42.3,8.9c0.1-0.1,0.2-0.1,0.2,0.1c0,0.2,0,0.4-0.2,0.5
			c-0.2,0.1-0.3-0.1-0.4-0.4C42,8.9,42.2,9,42.3,8.9L42.3,8.9z M42.7,33.2c-0.6,0.2-0.9,0.7-1.4,0.4c-0.2-0.1-0.1-0.3,0-0.4
			C41.6,32.8,42.1,32.9,42.7,33.2z M40.4,30.8c-0.1-0.3,0.1-0.4,0.4-0.4c0.4,0,0.7,0.3,0.8,0.7c0.1,0.2-0.2,0.4-0.4,0.5
			C40.8,31.4,40.6,31.2,40.4,30.8z M40.9,40.4c0,0.3-0.2,0.5-0.4,0.5c-0.2,0-0.3-0.2-0.3-0.4c0-0.3,0.1-0.4,0.4-0.4
			C40.8,40.1,41,40.2,40.9,40.4L40.9,40.4z M41.3,19.6c0.5,0.1,0.3,0.4,0.3,0.6c0,0.3-0.2,0.5-0.4,0.5c-0.3-0.1-0.4-0.4-0.6-0.6
			C40.9,19.7,41,19.5,41.3,19.6z M39.9,18c0.4,0.1,1,0.1,1,0.7c0.1,0.5-0.5,0.7-0.7,0.7c-0.4,0.1-0.6-0.4-0.8-0.8
			C39.6,18.4,39.5,18,39.9,18L39.9,18z M37.8,47.2c-0.4-0.2-0.5-0.4-0.5-0.7c0.1-0.3,0.1-0.6,0.5-0.6c0.3,0.1,0.6,0.2,0.5,0.6
			C38.1,46.9,38,47,37.8,47.2L37.8,47.2z M38.1,56.7c-0.1,0.2-0.2,0.4-0.4,0.4c-0.3,0-0.3-0.3-0.3-0.5c0-0.3,0.3-0.3,0.4-0.2
			C38.1,56.4,38.2,56.5,38.1,56.7z M37.1,16.7c0.2-0.3,0.2-0.7,0.6-0.7c0.2,0,0.4,0.3,0.3,0.4c-0.1,0.5-0.3,0.7-0.6,0.7
			C37.2,17,37,16.9,37.1,16.7z M37.9,20.8c-0.3-0.1-0.8,0-0.6-0.5c0-0.1,0.2-0.2,0.2-0.2C37.8,20.2,37.8,20.6,37.9,20.8z M37.4,22.2
			c0.2,0.2,0.6,0.3,0.5,0.7c-0.1,0.2-0.2,0.5-0.5,0.4C37.2,23.2,37,23,37,22.6C37.1,22.4,37.3,22.1,37.4,22.2z M36.8,41.7l0.1-0.1
			v1.5h-0.1V41.7z M37.5,43.8c0.3,0,0.5,0.4,0.7,0.7c-0.2,0.4-0.4,0.4-0.7,0.4c-0.4,0-0.7-0.2-0.6-0.5
			C36.9,44.1,37.2,43.8,37.5,43.8z M36.7,48.2c0.2,0.1,0.5,0.1,0.5,0.4c-0.1,0.2-0.2,0.3-0.4,0.5c-0.3-0.2-0.6-0.3-0.5-0.5
			C36.4,48.4,36.5,48.1,36.7,48.2z M33.5,26.9c-0.3,0.1-0.6-0.6-0.6-0.8c0.2-0.7,0.9-0.9,1.5-1.1c0.2-0.1,0.6,0.4,0.9,0.6
			C34.7,26.1,34.1,26.6,33.5,26.9z M34,48.6c0,0.2-0.2,0.5-0.3,0.4c-0.2-0.1-0.4-0.3-0.3-0.5c0.1-0.2,0-0.3,0.2-0.3
			C33.8,48.1,33.9,48.4,34,48.6z M32.9,47.7c-0.3,0.1-0.3-0.3-0.5-0.4c0.1-0.3,0.2-0.5,0.5-0.5c0.3,0,0.2,0.3,0.2,0.5
			C33.1,47.4,33.2,47.6,32.9,47.7z M31,28.4L31,28.4c-0.6,0.3-1.3,0.4-1.5,1.2c-0.1,0.4-0.3,0.6-0.6,0.3c-0.4-0.5-1.4-0.5-1-1.5
			c0.2-0.5,0.6-0.3,1-0.1c0.7,0.4,0.8-0.2,0.8-0.5c0-0.9,0.4-1.3,1.3-1.3c0.1,0,0.2-0.2,0.3-0.2c1.2-0.6,1.2-0.6,1.4,0.7
			c0.1,0.5,0.2,1.1-0.7,0.9C31.5,27.8,31.3,28.3,31,28.4L31,28.4z M31.2,35.9c0.1,0.2-0.1,0.4-0.3,0.4c-0.1,0-0.2-0.2-0.3-0.2
			c0-0.3,0.1-0.4,0.3-0.4C31,35.7,31.1,35.7,31.2,35.9L31.2,35.9z M30.1,57.8c-0.1,0.3-0.4,1-0.9,0.9c-0.6-0.2-1.7-0.3-1.7-0.9
			c0.1-0.6,1.1-0.8,1.8-1C29.5,56.6,30.2,56.9,30.1,57.8z M30.4,61.1C30.6,61,31,61,31,61.3c0.1,0.6-0.6,0.6-0.9,0.9
			c-0.4,0-0.6-0.2-0.6-0.4C29.6,61.2,30.1,61.2,30.4,61.1L30.4,61.1z M28.4,54c0-0.2,0.1-0.2,0.2-0.2c0.1,0.1,0.2,0.1,0.3,0.2
			c0,0.1-0.1,0.2-0.1,0.2C28.5,54.2,28.4,54.1,28.4,54L28.4,54z M29,44.9L29,44.9c-0.4-0.4-0.5-0.8-0.5-1.3c0-0.2,0-0.4,0-0.6
			c0-0.4-0.9-0.6-0.4-1c0.6-0.4,0.6,0.6,0.9,0.8s0.7,0.6,1,0.9c0.4,0.4,0.5,0.9,0.1,1.3C29.7,45.6,29.3,45.5,29,44.9L29,44.9z
			 M29.6,36.4c-1.4-0.2-2.3-0.8-3.4-1.7C27.8,34.4,28.7,35.2,29.6,36.4z M26.2,22.4v-1.3C26.5,21.5,26.5,22,26.2,22.4z M27.2,21.4
			c-0.2,0-0.3-0.1-0.3-0.1c-0.1-0.5,0.1-0.6,0.3-0.6c0.2,0,0.4-0.1,0.3,0.2C27.5,21.1,27.5,21.4,27.2,21.4z M27.6,22.1
			c-0.1,0.1-0.2,0.2-0.3,0.4c-0.1-0.2-0.2-0.2-0.2-0.3c-0.1-0.2,0-0.3,0.2-0.3C27.6,21.8,27.6,22,27.6,22.1z M28.5,23.8
			c-0.2,0.3-0.3,0.4-0.6,0.4c-0.2,0-0.4-0.1-0.3-0.3c0.1-0.3,0.4-0.4,0.6-0.4C28.5,23.5,28.5,23.6,28.5,23.8L28.5,23.8z M28.5,22
			c0-0.2,0.1-0.3,0.2-0.3c0.2-0.1,0.4,0.2,0.4,0.3c0.1,0.3-0.1,0.3-0.3,0.4C28.6,22.3,28.5,22.2,28.5,22z M28.3,36.6
			c0.3,0,0.6,0.1,0.7,0.4c-0.1,0.3-0.3,0.5-0.6,0.5c-0.4,0.1-0.5-0.3-0.6-0.6C27.8,36.6,28,36.6,28.3,36.6L28.3,36.6z M30.1,31.6
			c-0.2-0.1-0.4-0.1-0.4-0.4c0.1-0.2,0.3-0.2,0.4-0.2c0.1,0.1,0.3,0.2,0.3,0.3C30.5,31.6,30.3,31.7,30.1,31.6L30.1,31.6z M29.7,18.8
			c0.4,0.5,0.1,0.9,0.1,1.2L29.7,18.8z M31.3,25c0-0.3,0.2-0.5,0.5-0.5c0.3,0,0.5,0.3,0.4,0.5c-0.1,0.2-0.3,0.4-0.5,0.6
			C31.4,25.4,31.3,25.2,31.3,25L31.3,25z M32.4,30c0.2-0.1,0.5-0.1,0.4,0.1c-0.2,0.4-1,0.9,0.2,1.1c-0.2,0.6-0.7,0.8-1.2,1.3
			C31.7,31.4,31.6,30.6,32.4,30z M32.5,36.2c0.2,0.1,0.4,0.2,0.3,0.4c-0.1,0.2-0.2,0.4-0.4,0.3c-0.2-0.1-0.3-0.3-0.4-0.4
			C32.1,36.1,32.3,36.1,32.5,36.2L32.5,36.2z M35.1,45.6c0.3,0,0.3,0.2,0.3,0.4s-0.2,0.3-0.4,0.3c-0.3,0-0.3-0.2-0.3-0.4
			C34.8,45.7,34.9,45.6,35.1,45.6z M35.7,49.1c0.7-0.2,0.9,0.4,1.1,1c-0.7,0.2-1.3-0.1-1.6-0.5C34.9,49.4,35.5,49.2,35.7,49.1z
			 M36.8,59.2c0.1,0.1,0.2,0.1,0.2,0.2c0.1,0.2,0.1,0.3-0.2,0.4c-0.1,0-0.2-0.1-0.3-0.2C36.5,59.4,36.6,59.3,36.8,59.2z M36.2,9.7
			c0.2,0,0.4,0.1,0.3,0.3c-0.1,0.2-0.1,0.5-0.4,0.5c-0.2,0-0.3-0.2-0.3-0.4C35.8,9.8,35.9,9.6,36.2,9.7z M34.8,16.4
			c-0.1-1,0.6-1.6,0.9-2.4c0.1-0.2,0.3-0.1,0.4-0.1c0.2,0.1,0.3,0.1,0.3,0.3c-0.3,0.8-0.2,1.7-0.8,2.4c-0.2,0.2-0.3,0.5-0.6,0.4
			C34.6,16.9,34.9,16.5,34.8,16.4z M34.9,18.5c0.6,0.3,1,0.6,1.2,1.3c0.1,0.3-0.1,0.5-0.3,0.7c-0.3,0-1.5-1.4-1.4-1.6
			C34.5,18.5,34.7,18.4,34.9,18.5L34.9,18.5z M34.1,20.7c0.3,1.1-1,1-1.3,1.6c-0.9-1,0-1.3,0.6-1.8C33.8,20.2,34,20.5,34.1,20.7
			L34.1,20.7z M31.9,17.3c0.1-0.3,0.3-0.3,0.5-0.3s0.3,0.2,0.2,0.3c-0.1,0.2-0.2,0.4-0.5,0.4C32,17.6,31.8,17.5,31.9,17.3L31.9,17.3
			z M30.9,20.2c0.5-0.6,1-1.2,1.6-1.6c0.3-0.2,0.7,0.1,1,0.4c-0.8,0.7-1.4,1.4-2.2,1.9C31,21.1,30.8,20.3,30.9,20.2L30.9,20.2z
			 M31,22.4c0.2-0.2,0.5-0.2,0.6,0c0.4,0.6-0.2,0.9-0.5,1.2C30.8,23.3,30.6,22.9,31,22.4z M30.6,21c-0.1,0.2-0.2,0.4-0.5,0.4
			c-0.2-0.1-0.4-0.2-0.3-0.4c0.1-0.2,0.3-0.3,0.6-0.3C30.5,20.8,30.6,20.9,30.6,21z M28.7,12c0,0.3-0.2,0.5-0.4,0.6
			c-0.2-0.1-0.5-0.2-0.5-0.4c0.1-0.3,0.1-0.7,0.4-0.7C28.5,11.5,28.7,11.7,28.7,12z M28.1,8.1c0.3,0,0.5,0.2,0.5,0.5
			c0,0.3-0.2,0.4-0.4,0.5c-0.3-0.2-0.6-0.4-0.5-0.7C27.7,8.3,27.9,8.1,28.1,8.1z M26.7,16.8c0.7-0.9,1.4-1.7,2.3-2.2
			c0.7-0.4,0.6,0.3,0.8,0.6c0.1,0.3-0.2,0.4-0.4,0.6c-0.7,0.6-1.3,1.1-2,1.7c-0.2,0.2-0.3,0.5-0.7,0.2C26.6,17.3,26.6,17,26.7,16.8z
			 M26.1,12c0.3,0,0.6,0.2,0.6,0.5c0,0.3-0.2,0.5-0.5,0.5c-0.4,0-0.6-0.2-0.6-0.5C25.5,11.9,25.9,12,26.1,12L26.1,12z M22.5,41.4
			h1.7c0.1-0.1,0.1-0.1,0.1-0.2c0.2-0.4,0.2-0.8,0.6-1c0.1-0.1,0.4,0.1,0.4,0.2c0.1,0.5-0.5,0.6-0.7,1c0.3,0.6,1.2,0.9,1,1.8
			c-0.2,0.6-0.3,1.2-1.3,1.3C25.2,42.7,23.4,42.5,22.5,41.4L22.5,41.4z M22.5,43.7c-0.3-0.2-0.3-0.4-0.1-0.7
			c0.3-0.4,0.4,0.1,0.5,0.2c0.2,0.2,0.4,0.4,0.6,0.6c0.4,0.5-0.1,2-0.6,2.1c-0.3,0.1-0.3-0.2-0.4-0.5c-0.1-0.6,0.4-1,0.5-1.4
			C23,43.7,22.7,43.8,22.5,43.7z M23.4,68.9c0.1-0.1,0.4-0.1,0.4,0.1c0.2,0.4,0.2,0.8-0.3,1.3C23.6,69.7,22.9,69.3,23.4,68.9z
			 M23.5,39.6c0.2-0.3,0.4-0.7,0.7-0.8c0.3-0.1,0.5,0.3,0.5,0.6c0.1,0.6-0.4,0.6-0.8,0.7C23.7,40.1,23.4,39.8,23.5,39.6z M25.2,36.7
			c-0.1-0.2,0.1-0.4,0.3-0.4s0.4,0.1,0.4,0.3c0,0.1-0.2,0.3-0.2,0.4C25.3,37.1,25.3,36.9,25.2,36.7z M25.4,9.7
			c0.4-0.1,0.4,0.2,0.4,0.5c0,0.4-0.2,0.5-0.4,0.7c-0.4-0.1-0.5-0.3-0.5-0.6C24.9,9.9,25.1,9.7,25.4,9.7z M23.9,12.8
			c0.6,0.4,0.6,0.9,0.4,1.3c0,0.1-0.2,0.1-0.3,0C23.4,13.8,23.8,13.4,23.9,12.8z M24.1,28.3L24.1,28.3
			C24.1,28.3,24.1,28.3,24.1,28.3c0.8-0.1,1.3,0.4,1.6,0.9c0.1,0.2,0,0.4-0.2,0.5c-0.2,0.2-0.3,0-0.5-0.1
			C24.5,29.4,23.7,29.3,24.1,28.3C24.1,28.3,24.1,28.3,24.1,28.3L24.1,28.3c-0.2,0.1-0.4,0.1-0.5,0.1c-0.3,0,0.1,0.8-0.5,0.4
			c-0.4-0.3,0.1-0.7,0.1-1C23.4,28.1,24.1,27.6,24.1,28.3z M22.6,16.3c0.5,0.5,0.6,1,0.2,1.4c-0.2,0.3-0.3,0.1-0.4-0.1
			C21.8,17.1,22.4,16.8,22.6,16.3z M20.8,13.8c0.3,0,0.4,0.1,0.3,0.3c0,0.3-0.2,0.5-0.4,0.5c-0.2,0-0.3-0.2-0.3-0.4
			C20.5,14,20.5,13.8,20.8,13.8z M20.8,15.5c-0.1,0.5,1.3,0.4,0.5,1.2c-0.2,0.2-0.4,0.7-0.8,0.3C19.9,16.3,20.6,15.9,20.8,15.5z
			 M20.7,19.7c0.5-0.1,0-0.8,0.1-1.2c0.6,0.2,1.2,0.4,0.6,1.2c-0.2,0.3-0.1,0.9,0.4,1c1.5,0.4,0.5,1,0.2,1.5
			c-0.1,0.1-0.3,0.1-0.3,0.4c0.6-0.4,0.9,0.6,1.6,0.3c-0.8,0.9-1.7,1.3-2.8,1.6c-0.3,0.1-0.7,0.2-0.8-0.2c-0.1-0.3-0.1-0.6,0.3-0.9
			c0.5-0.4,0.9-0.8,0.6-1.6c-0.4,0.2-0.9,0.5-1.5,0.4c-0.6-0.1-0.7-0.5-0.4-0.7C19.4,21.2,19.4,19.8,20.7,19.7z M21.6,34.4
			c0,0.8,0.2,1.2-0.1,1.6C21.3,35.6,21.3,35.1,21.6,34.4z M21.2,26.1c-0.1-0.6-0.2-0.9,0.1-1.4C21.5,25.1,21.4,25.5,21.2,26.1z
			 M19.4,43.2c-0.4-0.1-0.7-0.1-0.6-0.6c0.1-0.5,0.4-0.6,0.6-0.8c0.3,0.3,0.8,0.6,0.8,0.9C20.3,43,19.8,43.1,19.4,43.2L19.4,43.2z
			 M20.4,44c0.2,0,0.3,0,0.3,0.2c0,0.3-0.2,0.3-0.3,0.4c-0.2-0.1-0.4-0.2-0.3-0.4C20.1,43.9,20.2,44,20.4,44z M19.3,47.1
			c0.8-0.6,0.8,0.5,1.3,0.6c-0.4,0.6-0.8,0.7-1.3,0.2C19.2,47.7,18.9,47.5,19.3,47.1z M20.9,56c-0.3-0.2-0.7,0-1.1-0.2
			C20.3,55.4,20.6,55.4,20.9,56z M19.3,18c0.2,0,0.3,0.1,0.3,0.3c0,0.3-0.2,0.4-0.4,0.6c-0.2-0.1-0.4-0.2-0.4-0.4
			C18.8,18.1,19,18,19.3,18z M18.5,14v1.5C18.3,14.9,18.4,14.5,18.5,14z M15.8,21.2c0.3-0.3,0.7-0.3,0.6-0.9
			c-0.3-1.4,0.6-1.3,1.5-1.2c-0.1,1.2-1,1.7-1.6,2.4c-0.2,0.2-0.3,0.3-0.5,0.2C15.6,21.6,15.6,21.4,15.8,21.2z M17.5,32.7
			c-0.2-0.2-0.4-0.4-0.5-0.6c-0.1-0.3,0.1-0.3,0.3-0.3c0.3,0,0.4,0.2,0.5,0.4C17.9,32.3,17.8,32.5,17.5,32.7L17.5,32.7z M16.2,23.7
			c-0.2-0.3-0.1-0.5-0.1-0.9C16.5,23.1,16.6,23.4,16.2,23.7z M15,20.1c0.3,0,0.4,0.2,0.4,0.5c0,0.2-0.1,0.4-0.3,0.4
			c-0.2-0.1-0.4-0.2-0.4-0.5C14.7,20.3,14.7,20,15,20.1z M14.5,22.6c0.2-0.1,0.2,0.1,0.3,0.3c0,0.2,0,0.3-0.2,0.4
			c-0.2,0-0.3-0.1-0.3-0.3C14.3,22.9,14.4,22.7,14.5,22.6z M14.6,33.2c0.2,0.4,0.1,0.6-0.3,0.8c-0.1,0.1-0.3-0.2-0.3-0.3
			C14,33.4,14.4,33.4,14.6,33.2z M13.3,18.8c0.5-0.2,0.4,0.3,0.4,0.3c0.2,0.8-0.5,0.9-1,1.1C12.6,19.5,12.5,19,13.3,18.8z
			 M12.5,32.7c0-0.4-0.4-0.7-0.2-1.1c0-0.1,0.3-0.1,0.4,0C13,32,13,32.3,12.5,32.7z M12.7,26.3c0,0.3-0.1,0.5-0.3,0.5
			c-0.4-0.1-0.6-0.4-0.6-0.7c0-0.4,0.3-0.5,0.5-0.5C12.6,25.7,12.7,26,12.7,26.3z M12.8,46.4c0.2-0.1,0.5-0.1,0.5,0.2
			c0.1,0.3-0.1,0.4-0.4,0.5c-0.3,0-0.5,0-0.8,0c0,0,0,0,0,0.1h-0.1c0.1,0.3-0.1,0.5-0.3,0.7c-0.3,0.2-0.2,0.8-0.8,0.7
			c-0.3-0.1-0.4-0.4-0.3-0.7c0.1-0.5,0.4-0.8,0.9-0.9c0.2,0,0.3,0.1,0.5,0.2l0,0l0,0C12.1,46.5,12.6,46.5,12.8,46.4L12.8,46.4z
			 M12.6,41c0-0.3,0.2-0.3,0.4-0.3c0.2,0,0.3,0.1,0.3,0.3c-0.1,0.2-0.2,0.3-0.5,0.3C12.6,41.3,12.6,41.2,12.6,41L12.6,41z M9.6,45.3
			C9.6,45,9.7,44.9,10,44.9c0.2,0,0.4,0.1,0.4,0.3c0,0.2-0.1,0.4-0.3,0.4C9.9,45.6,9.7,45.5,9.6,45.3z M9.8,53.5
			c-0.4,0.3-0.6,0.2-0.8-0.2L9.8,53.5z M9.9,37.1c0-0.5,0.3-0.8,0.7-0.8c0.3-0.1,0.5,0.3,0.5,0.6c-0.1,0.5-0.5,0.6-0.7,0.9
			C10,37.6,9.9,37.3,9.9,37.1L9.9,37.1z M11.2,59.8L10,59.6C10.5,59.4,10.9,59.3,11.2,59.8z M11.1,73.8c0.2-0.1,0.5,0.2,0.4,0.4
			c-0.1,0.2-0.1,0.6-0.5,0.7c-0.3-0.2-0.4-0.3-0.4-0.6C10.6,73.8,10.9,73.9,11.1,73.8z M11,53c-0.2,0-0.5-0.1-0.4-0.3
			c0.1-0.3,0.3-0.6,0.6-0.6c0.2,0,0.5,0.1,0.5,0.4C11.6,52.9,11.4,53,11,53L11,53z M11.8,64.2c0,0,0.3,0.1,0.3,0.1
			c0.2,0.6,0.1,1.1-0.4,1.7c-0.1-0.3-0.1-0.3-0.1-0.4C11.7,65.2,11.6,64.7,11.8,64.2z M12,38.9c-0.2,0-0.3-0.2-0.2-0.4l0.3-0.3
			c0.1,0.1,0.2,0.3,0.2,0.4C12.4,38.9,12.1,38.9,12,38.9z M11.2,34L11.2,34L11.2,34L11.2,34c0,0.2,0,0.3,0.1,0.5
			c0,0.3-0.2,0.4-0.4,0.5c-0.1,0-0.2-0.1-0.3-0.2c-0.2-0.3-0.1-0.4,0.2-0.6C11,34.2,11.1,34.1,11.2,34L11.2,34L11.2,34
			c0-0.6-0.6-1-0.8-1.6c-0.1-0.2-0.3-0.3,0.1-0.5c0.2-0.1,0.4-0.2,0.5-0.2c0.4,0.4,1,0.7,1.2,1.3C12.4,34,11.9,34.2,11.2,34L11.2,34
			z M11.9,22.1c0.2-0.1,0.3,0.1,0.3,0.4c0,0.2-0.2,0.5-0.5,0.6c-0.1,0-0.3-0.2-0.3-0.3C11.4,22.4,11.6,22.2,11.9,22.1z M10.9,27.2
			c0.5,0.2,0.5,0.7,0.6,1.1c-0.3,0.5,0.6,0.9,0.1,1.4c-0.5-0.3-0.1-0.7-0.2-1c-0.8,0.1-0.7-0.5-0.7-0.9
			C10.6,27.5,10.8,27.2,10.9,27.2z M9.5,29.3c0.6,0.3,1.4,0.3,1.3,1.2c-0.1,0.3-0.1,0.6-0.4,0.7c-0.3,0.1-0.5-0.2-0.6-0.5
			C9.6,30.4,9.3,29.9,9.5,29.3L9.5,29.3z M8.9,27.5c0-0.2,0-0.3,0.3-0.3c0.2,0.1,0.3,0.2,0.2,0.3c0,0.2-0.1,0.3-0.3,0.3
			C8.9,27.8,8.9,27.6,8.9,27.5z M9.3,35.3c0,0.1-0.2,0.3-0.3,0.3c-0.3,0-0.3-0.3-0.4-0.4c0.1-0.2,0.1-0.4,0.3-0.4
			C9.2,34.8,9.4,35,9.3,35.3L9.3,35.3z M8.8,32c0.3,0.1,0.7,0.2,0.6,0.6c-0.1,0.3-0.2,0.7-0.6,0.8c-0.3-0.2-0.5-0.5-0.4-0.7
			C8.4,32.4,8.4,32,8.8,32z M8.2,36c0.3,0.3,0.8,0.3,1,0.7c-0.1,0.4-0.4,0.8-0.5,0.7c-0.3-0.3-0.8-0.5-0.8-1
			C7.9,36.3,8.1,36.1,8.2,36L8.2,36z M8.5,59.9c-0.6-0.4-1.3-0.7-1.6-1.3c-0.2-0.4,0.1-0.7,0.4-0.9c0.4-0.3,0.7-0.1,0.9,0.3
			c0.3,0.5,0.3,1.2,0.8,1.7C9.1,59.7,8.7,59.8,8.5,59.9L8.5,59.9z M8.7,72.4c0,0.2-0.3,0.4-0.5,0.4c-0.4,0-0.4-0.3-0.4-0.5
			s0.1-0.5,0.4-0.4C8.5,72,8.7,72.1,8.7,72.4z M7.4,40.4c0.4,0,0.6,0.4,0.7,0.8c0.1,0.3-0.1,0.5-0.4,0.7c-0.3-0.3-0.7-0.3-0.8-0.7
			C6.8,40.7,7.2,40.4,7.4,40.4L7.4,40.4z M6.6,36c-0.3-0.1-0.5-0.3-0.6-0.5C6,35.3,6.2,35,6.4,35c0.4,0,0.5,0.3,0.6,0.6
			C7,35.7,6.6,36.1,6.6,36z M8.3,44C8,44,8,43.7,7.9,43.6c-0.1-0.2,0-0.3,0.2-0.3c0.3,0,0.5,0.1,0.5,0.3C8.6,43.8,8.5,43.9,8.3,44
			L8.3,44z M8.7,48.5c-0.1,0.3-0.2,0.5-0.5,0.6c-0.3-0.2-0.4-0.4-0.4-0.7c0-0.3,0.1-0.5,0.4-0.4C8.5,48,8.8,48.1,8.7,48.5z
			 M8.1,38.7c0,0.2-0.1,0.4-0.3,0.4c-0.2,0-0.4-0.2-0.4-0.4c-0.1-0.3,0.1-0.4,0.3-0.4C7.9,38.4,8,38.5,8.1,38.7z M6.2,29.3
			c0.5-0.1,0.5,0.3,0.5,0.6c0,0.2,0,0.4-0.1,0.6c0.1,0.1,0.2,0.2,0.2,0.3c0.1,0.3,0.9-0.1,0.7,0.6c-0.1,0.2-0.4,0.4-0.7,0.3
			C6.4,31.3,6,31,6.4,30.4C6.2,30.3,6,30.1,6,29.9C6,29.7,5.8,29.3,6.2,29.3z M5.3,36.7c0.2-0.1,0.2,0.2,0.2,0.3
			c-0.1,0.4-0.3,0.5-0.5,0.7c-0.1-0.2-0.3-0.3-0.3-0.5C4.7,36.9,5,36.7,5.3,36.7z M4.6,39.1c0.1-0.3,0.1-0.7,0.5-0.6
			c0.3,0,0.4,0.3,0.4,0.6c0,0.4-0.5,0.3-0.6,0.6C4.5,39.5,4.5,39.3,4.6,39.1L4.6,39.1z M4.1,45.4C4.2,45.7,4,45.8,3.8,46
			c-0.2-0.1-0.4-0.3-0.4-0.6c0-0.2-0.1-0.5,0.2-0.5C3.9,44.9,4.1,45.1,4.1,45.4z M3.3,38.9c0.2-0.1,0.4,0.1,0.4,0.3
			c-0.1,0.4-0.2,0.6-0.6,0.6c-0.2,0-0.3-0.2-0.4-0.3C2.8,39.1,3.1,39,3.3,38.9L3.3,38.9z M2.8,49.9l0.3-2.2c0.5,0.2,0.9,0.3,0.8,0.9
			C3.9,49.2,3.7,49.4,2.8,49.9z M4.2,47.3c-0.2,0-0.3-0.2-0.4-0.4c0.1-0.1,0.1-0.2,0.2-0.2c0.3-0.1,0.4,0.2,0.4,0.3
			C4.4,47.2,4.3,47.3,4.2,47.3z M4.6,44.6c-0.3,0-0.6-0.3-0.5-0.6c0.1-0.5,0.5-0.3,0.7-0.3c0.3,0,0.7,0.1,0.6,0.4
			C5.3,44.4,5,44.7,4.6,44.6L4.6,44.6z M4.9,42c0.2-0.2,0.3-0.3,0.4-0.5c0.3-0.2,0.4-0.1,0.6,0.1C6.2,42.1,6.6,42.6,7,43
			c0.3,0.3,0.2,0.5-0.1,0.7c-0.2,0.2-0.4,0.1-0.6-0.1C6,43.1,5.3,42.7,4.9,42L4.9,42z M5.8,61c0.4-0.2,0.8-0.4,0.7-0.9
			C6.7,61,6.7,61,5.8,61z M6.7,67.1c0.1-0.2-0.3-0.6,0.4-0.6c0.6-0.1,1.3-0.6,1-1.6c0.5,0.9-0.2,1.6-0.3,2.3
			c-0.1,0.4-0.4,0.4-0.8,0.4C6.7,67.5,6.6,67.3,6.7,67.1z M6.7,68.5c0.4-0.3,0.8-0.2,1.2-0.1C7.5,68.7,7.1,68.7,6.7,68.5z M9.2,75.2
			c-0.6,0.5-1-0.3-1.4-0.7c-0.6-0.6,0.2-0.5,0.4-0.7c0.3-0.4,0.6-0.7,1-1c0.3-0.2,0.4-0.8,0.9-0.6c0.3,0.2,0.5,0.6,0.4,1
			C10.4,74.1,9.8,74.8,9.2,75.2z M10.3,79.4c-0.3,0-0.3-0.5-0.5-0.7c0-0.4,0.2-0.6,0.5-0.6c0.3-0.1,0.6,0.2,0.6,0.4
			C10.9,78.8,10.8,79.4,10.3,79.4z M11.2,82.9c-0.3,0-0.6-0.1-0.6-0.4c0-0.3,0.2-0.5,0.5-0.5c0.4,0,0.4,0.3,0.5,0.5
			C11.6,82.7,11.4,82.9,11.2,82.9z M11.3,80.8c-0.3,0.1-0.5-0.3-0.7-0.5c0.1-0.3,0.3-0.5,0.5-0.4c0.3,0.1,0.7,0,0.8,0.5
			C11.9,80.7,11.5,80.7,11.3,80.8L11.3,80.8z M12.4,68.8V70c-0.3-0.5-0.2-0.9-0.2-1.2v-1.7C12.5,67.7,12.4,68.3,12.4,68.8z
			 M13.3,65.3c0,0.2-0.1,0.3-0.4,0.3c-0.1-0.1-0.3-0.3-0.3-0.4c-0.1-0.3,0.2-0.2,0.4-0.2C13.4,65,13.4,65.2,13.3,65.3z M13.2,37.4
			c-0.4-0.2-0.8-0.2-1-0.6c0.2-0.4,0.4-0.5,0.7-0.5c0.4,0.1,0.7,0.3,0.8,0.7c0.1,0.2-0.1,0.4-0.3,0.4C13.4,37.4,13.3,37.4,13.2,37.4
			z M14,48.7c0.3-0.1,0.5,0.3,0.5,0.7c-0.1,0.3-0.2,0.7-0.5,0.7c-0.3,0.1-0.4-0.4-0.4-0.7C13.5,49.1,13.7,48.7,14,48.7z M14.1,52.6
			c-0.4-0.2-0.4-0.5-0.2-0.6c0.5-0.6,1-0.1,1.7,0C15.1,52.5,14.8,53,14.1,52.6z M17.5,73.7c-0.1,0.2-0.2,0.4-0.5,0.4
			c-0.3,0-0.2-0.3-0.2-0.4c-0.1-0.3,0.1-0.5,0.4-0.5C17.5,73.3,17.5,73.4,17.5,73.7L17.5,73.7z M16.9,70.7c-0.7-0.3-1.5-0.4-1.9-0.9
			c-0.3-0.4,0.6-0.4,0.7-0.9c0.1-0.3,1.7,0.5,1.7,1C17.5,70.3,17.3,70.6,16.9,70.7z M16.6,50c-0.1-0.3,0.2-0.4,0.4-0.4
			c0.3-0.1,0.4,0.2,0.5,0.4s-0.2,0.3-0.4,0.4C16.8,50.4,16.6,50.2,16.6,50z M17.4,48.1c-0.1-0.2-0.3-0.3-0.3-0.4
			c-0.1-0.2-0.1-0.5,0.3-0.5c0.2,0,0.4,0.1,0.4,0.3C17.7,47.8,17.6,47.9,17.4,48.1z M17.3,41.7c-0.2-0.1-0.5-0.2-0.5-0.5
			c0.1-0.3,0.3-0.4,0.5-0.3c0.2,0.1,0.4,0.2,0.4,0.5C17.7,41.7,17.5,41.7,17.3,41.7L17.3,41.7z M15.7,40.8c-0.3-0.1-0.3-0.4-0.2-0.6
			c0.5-0.8,1.4-0.7,2-1.3c0.1-0.1,0.4,0.2,0.4,0.4C17.9,39.8,16.1,40.9,15.7,40.8L15.7,40.8z M18.5,19.8c0.3,0,0.6,0.2,0.5,0.5
			c-0.1,0.3-0.1,0.6-0.5,0.7c-0.3-0.1-0.4-0.3-0.4-0.6C18.2,20.2,18,19.8,18.5,19.8z M18.5,23.8c0.1,0,0.2,0.1,0.3,0.2
			c0.1,0.2,0,0.3-0.2,0.4c-0.2,0.1-0.3-0.1-0.3-0.2C18.2,23.9,18.3,23.8,18.5,23.8z M19.6,69.2c-0.2-0.1-0.4-0.2-0.4-0.5
			c0-0.2,0.1-0.4,0.3-0.4c0.2,0,0.4,0.1,0.4,0.3C20.1,69,19.9,69.1,19.6,69.2z M18.3,65.1c1.2-0.7,0.4-1.5,0.3-2.2l0,0
			c-0.6-1.1,0-2.9,1.2-3.3c0.4-0.1,0.4-0.4,0.5-0.6c-0.1-0.4,0.1-0.6,0.4-1v0.8c0.3,0.2,0.5,0.4,0.7,0.6c0.5,0.5,0.1,0.8-0.2,1.1
			c-0.6,0.6-0.4-0.2-0.5-0.3c-0.4-0.2-0.8-0.2-1.2,0c-0.3,0.1-0.3,0.5,0.1,0.6c0.3,0.1,0.6,0.1,1.2,0.1c-1,0.6-1.4,1.2-1.1,2.2
			c0.4-0.1,0.6-0.6,0.9-0.8c0.2-0.1,0.4-0.5,0.5-0.2c0.2,0.2,0.5,0.4,0.3,0.8c-0.4,0.6-0.8,1.2-1.1,1.8
			C19.8,65.3,19.1,65.2,18.3,65.1L18.3,65.1z M20,72.2c0.1-0.2,0.1-0.3,0.3-0.3c0.2,0.1,0.4,0.2,0.4,0.5c0,0.2-0.1,0.4-0.3,0.4
			C20.2,72.6,20,72.5,20,72.2z M20.9,83c-0.4,0.1-0.4-0.1-0.4-0.2c0-0.2,0.1-0.4,0.3-0.4c0.2,0,0.4-0.1,0.4,0.3
			C21.1,82.8,20.9,83,20.9,83z M21.2,74.3c-0.4,0-0.4-0.4-0.5-0.6c0-0.2,0.3-0.4,0.5-0.3c0.3,0.1,0.6,0.1,0.5,0.5
			C21.8,74.2,21.4,74.2,21.2,74.3L21.2,74.3z M21.9,50.6c-0.1,0-0.2,0-0.2-0.1c-0.2-0.3-0.1-0.6,0.3-0.8
			C22.1,50.1,22.2,50.4,21.9,50.6z M22.6,77.6c-0.3,0-0.4-0.2-0.4-0.4c-0.1-0.3,0.2-0.3,0.4-0.3c0.2,0,0.4-0.1,0.4,0.2
			C23,77.4,22.8,77.6,22.6,77.6L22.6,77.6z M24.1,95c-0.2,0.2-0.1,0.6-0.4,0.6c-0.3-0.1-0.5-0.3-0.5-0.6c0.1-0.3,0.3-0.5,0.6-0.5
			C23.9,94.5,24.3,94.7,24.1,95z M23.7,82.4c-0.3-0.5-0.7-0.9-0.3-1.4c0.2-0.2,0.3-0.3,0.5-0.1C24.4,81.4,24.1,81.9,23.7,82.4
			L23.7,82.4z M24.2,77.6c-0.4-0.1-0.5-0.5-0.5-0.7c0-0.3,0.1-0.5,0.3-0.4c0.4,0.1,0.6,0.3,0.6,0.7C24.6,77.4,24.4,77.6,24.2,77.6
			L24.2,77.6z M23.6,74.8c-0.2,0.3-0.4,0-0.5-0.2c-0.3-0.4-0.5-0.8-0.3-1.3c0.4-0.7,0.6-1.3,1-2c0.5,0.9,0.7,1.6,0.8,2.4
			C24.7,74.3,24,74.3,23.6,74.8L23.6,74.8z M25,65.9c-0.3-0.2-0.2-0.4,0.1-0.6c0.3-0.3,0.4,0.1,0.5,0.2c0.3,0.6,0.6,1.1,1.2,1.2
			c0.2,0.1,0.3,0.3,0.2,0.4c-0.3,0.2-0.5-0.1-0.6-0.4C25.6,66.7,25.4,66.2,25,65.9L25,65.9z M26.7,78.6c0,0.2-0.2,0.3-0.4,0.4
			c-0.2-0.1-0.4-0.3-0.4-0.5c0.1-0.3,0.2-0.3,0.4-0.3C26.7,78.1,26.7,78.3,26.7,78.6L26.7,78.6z M26.3,75.9
			c-0.3-0.1-0.8-0.2-0.8-0.7c0.1-0.4,0.5-0.4,0.7-0.4c0.4,0,0.8,0.1,0.8,0.4C27.1,75.6,26.7,76,26.3,75.9L26.3,75.9z M26.7,59.7
			l-0.5-0.4l0.6-0.6c0.1,0.2,0.3,0.3,0.3,0.5C27.2,59.5,26.8,59.4,26.7,59.7L26.7,59.7z M26.9,43.5c-0.1-0.2,0.2-0.5,0.4-0.4
			c0.4,0.1,0.6,0.4,0.6,0.4c0.2,0.6-0.1,0.9-0.2,0.9C27.4,44.2,27.1,43.9,26.9,43.5L26.9,43.5z M27.2,55.2c0.1-0.2,0.2-0.4,0.4-0.5
			c0.3,0.1,0.3,0.3,0.3,0.5c0,0.2-0.1,0.5-0.4,0.4C27.3,55.6,27.1,55.5,27.2,55.2L27.2,55.2z M27.9,74.8c-0.3-0.1-0.5-0.2-0.5-0.5
			c-0.1-0.3,0.2-0.6,0.4-0.6c0.3-0.1,0.5,0.2,0.5,0.5C28.3,74.6,28.1,74.7,27.9,74.8L27.9,74.8z M28.6,63.6c0.1-0.1,0.2-0.4,0.4-0.1
			c0.5,0.5,0,1-0.2,1.5C28.4,64.5,28,64.1,28.6,63.6L28.6,63.6z M28.7,66.7c-0.3-0.1-0.4-0.3-0.4-0.5c0-0.6,0.3-0.9,0.8-1
			c0.4-0.1,0.8,0.1,0.7,0.4C29.8,66.2,29,66.2,28.7,66.7z M31.1,64.1c-0.4,0.4-1.1-0.2-1.3-0.4c-0.5-0.8,0.7-0.8,0.8-1.3
			C31,63,32,63.5,31.1,64.1L31.1,64.1z M30.1,55.5c-0.2-0.2-0.6-0.4-0.2-0.7c0.7-0.7,1.1,0.2,1.7,0.4C31,55.7,30.7,56.3,30.1,55.5
			L30.1,55.5z M32,60.9c-0.3,0-0.5-0.2-0.4-0.4c0-0.2,0.2-0.4,0.4-0.4c0.3-0.1,0.3,0.2,0.3,0.4C32.2,60.7,32.3,60.9,32,60.9L32,60.9
			z M32.1,57.5c-0.1-0.2-0.3-0.4-0.3-0.5c-0.1-0.4,0.4-0.3,0.5-0.5c0.1-0.1,0.4,0.2,0.4,0.4C32.6,57.1,32.4,57.4,32.1,57.5z
			 M33.1,58.5c0.4-0.1,0.4,0.4,0.6,0.7c-0.1,0.3-0.3,0.5-0.6,0.6c-0.3,0-0.5-0.2-0.5-0.4c0-0.1,0-0.1,0-0.1
			C32.7,59,32.8,58.6,33.1,58.5L33.1,58.5z M33.3,68.1c-0.3-0.1-0.6-0.5-0.6-0.6c0.4-0.4,0.7-0.7,1.2-0.9c0.2-0.1,0.4,0.2,0.4,0.4
			C34.2,67.7,33.6,67.8,33.3,68.1L33.3,68.1z M34.5,60.2c-0.4-0.3-0.7-0.7-0.2-1.1c0.2-0.2,0.1-0.5,0.5-0.6c0.2,0.2,0.3,0.5,0.5,0.7
			c0.4,0.5,0.2,0.9-0.2,1.2C34.8,60.8,34.7,60.4,34.5,60.2z M34.7,56.6c0.2,0,0.5-0.1,0.5,0.3c0,0.4-0.3,0.6-0.6,0.8l-0.3-0.5
			C34.2,56.7,34.4,56.6,34.7,56.6z M35.4,62.1c-0.3,0.1-0.4-0.2-0.5-0.4c-0.1-0.3,0.2-0.4,0.3-0.4c0.2,0,0.4,0.2,0.4,0.5
			C35.6,61.9,35.5,62.1,35.4,62.1L35.4,62.1z M34.5,55.9c-0.5,0.2-0.7-0.3-0.6-0.7c0-0.6,0.5-1,0.9-1c0.5-0.1,0.8,0.5,1,0.9
			C35.5,55.8,34.9,55.8,34.5,55.9L34.5,55.9z M38.1,67c-0.2,0.3-0.3,0.7-0.7,0.7c-0.3-0.1-0.3-0.5-0.4-0.8c-0.1-0.4-0.1-0.7-0.5-1.1
			c-0.7-0.6,0.1-1.3,0.9-1.8c0.1,0.8,0,1.5,0.5,2.1C38.1,66.1,38.4,66.6,38.1,67L38.1,67z M39.2,33.2c-0.1,0.2-0.2,0.4-0.4,0.4
			c-0.2-0.1-0.3-0.3-0.2-0.4c0.1-0.2,0.3-0.4,0.3-0.4C39.1,32.8,39.4,33,39.2,33.2L39.2,33.2z M39.2,27.5c-0.3-0.2-0.5-0.5-0.6-0.9
			c-0.1-0.2,0-0.5,0.3-0.4c0.4,0.1,0.6,0.4,0.7,0.7C39.7,27.2,39.5,27.4,39.2,27.5z M39.5,22.2c0-0.5,0.5-0.5,0.7-0.6
			c0.4-0.1,0.5,0.3,0.5,0.6c0.1,0.5-0.6,0.2-0.6,0.5C39.8,22.6,39.5,22.5,39.5,22.2z M39.8,24.8c0.1-0.2,0.2-0.4,0.4-0.3
			c0.2,0.1,0.5,0.3,0.4,0.6c-0.1,0.2-0.2,0.3-0.4,0.4C40,25.3,39.8,25.1,39.8,24.8z M40.3,50.5c0.1-0.3,0.5-0.4,0.7-0.1
			c0.5,0.5-0.1,0.9-0.2,1.3C40.3,51.5,40.1,51.1,40.3,50.5L40.3,50.5z M41.1,59.8c-0.3-0.1-0.5-0.3-0.6-0.5c0-0.2,0.1-0.3,0.3-0.3
			c0.4,0,0.6,0.2,0.6,0.5C41.3,59.5,41.2,59.8,41.1,59.8z M41.6,41.9c-0.1-0.3,0.2-0.3,0.3-0.5l0.3,0.2c0.1,0.3,0.1,0.4-0.2,0.4
			C41.9,42.1,41.7,42.1,41.6,41.9z M42.2,51.6c0.3,0,0.4,0.2,0.3,0.4c-0.1,0.2-0.1,0.3-0.3,0.3c-0.2-0.1-0.4-0.3-0.4-0.5
			C41.9,51.5,42.1,51.6,42.2,51.6z M42.4,58.5c-0.3,0-0.4-0.2-0.5-0.4c-0.1-0.2,0-0.3,0.2-0.3c0.3,0,0.5,0.1,0.6,0.3
			C42.7,58.3,42.5,58.4,42.4,58.5z M42,40.4c-0.4,0.1-0.5-0.5-0.6-0.7c-0.2-0.4,0.2-0.8,0.6-0.9c0.2-0.1,0.7,0.2,0.8,0.6
			C42.6,39.7,42.4,40.3,42,40.4L42,40.4z M43.2,47.9c-0.2,0.1-0.3-0.2-0.2-0.3c0.2-0.6,0.6-0.7,1.1-0.8c0.2-0.1,0.3,0.1,0.3,0.3
			C44.1,47.5,43.7,47.7,43.2,47.9z M44.4,37c-0.2-0.1-0.4-0.2-0.4-0.4c0-0.2,0.2-0.4,0.3-0.4c0.2,0,0.5,0.1,0.5,0.3
			C44.7,36.7,44.7,37,44.4,37L44.4,37z M46.3,45.1c-0.1,0.3-0.2,0.8-0.6,0.7c-0.6-0.2-0.3-0.9-0.7-1.2c-0.1-0.4,0.1-0.5,0.3-0.7
			c0.2-0.1,0.3-0.1,0.4,0.1C45.8,44.4,46.6,44.5,46.3,45.1z M47.7,36.3c-0.7,0.2-1.1-0.1-1.5-0.6c-0.2-0.2,0.1-0.4,0.3-0.4
			c0.7-0.1,1,0.4,1.3,0.9C47.8,36.3,47.8,36.3,47.7,36.3z M47.9,35.7c-0.1-0.1-0.3-0.2-0.3-0.3c0-0.1,0.2-0.3,0.3-0.3
			c0.1,0.1,0.2,0.2,0.3,0.3C48.2,35.6,48.1,35.7,47.9,35.7z M48.1,25.1c0.1-0.2,0.2-0.3,0.4-0.3c0.2,0.1,0.3,0.2,0.2,0.4
			c-0.1,0.1-0.3,0.3-0.4,0.3C48.1,25.5,48,25.3,48.1,25.1L48.1,25.1z M49.1,38.5c-0.3,0-0.6,0-0.6-0.4c0-0.3,0.2-0.5,0.5-0.5
			c0.3,0,0.5,0.3,0.5,0.5C49.6,38.5,49.3,38.4,49.1,38.5z M50,45.1c-0.3-0.2-0.3-0.4-0.4-0.7C49.6,43.9,50,44,50.2,44
			c0.3,0,0.4,0.2,0.4,0.4C50.6,44.7,50.2,44.8,50,45.1L50,45.1z M51.1,43.2c-0.5-0.4-0.6-0.9-0.8-1.4c-0.1-0.3,0.2-0.5,0.5-0.5
			c0.6,0.1,0.8,0.5,1.2,0.8C51.8,42.5,51.7,43,51.1,43.2L51.1,43.2z M52.1,29.1c-0.2-0.4-0.2-0.8-0.1-1.2
			C52.3,28.4,52.3,28.8,52.1,29.1z M55,41.8c-0.2,0.4-0.5,0.7-0.7,1.1c0-0.8,0-1.3-1-1.2c-0.6,0.1-0.5-0.5-0.3-0.7
			c0.3-0.5,0.7-1,1.3-0.7c0.2,0.1,0.3,0,0.4,0.1C55.5,40.7,55.6,40.9,55,41.8L55,41.8z M56.6,39.2c-0.1,0.3-0.4,0.1-0.6,0.2l0,0
			c0,0,0,0-0.1,0v0.8c-0.7-0.5-1.3-0.9-1.8-1.4c-0.3-0.3-0.7-0.7-0.3-1c0.2-0.2,0.7-0.6,1.2-0.1c0.4,0.3,0.9,0.6,1.1,1
			C56.3,38.8,56.7,38.9,56.6,39.2L56.6,39.2z M57.1,18.2c-0.2-0.7-0.9-0.9-0.7-1.5c0.1-0.2,0.3-0.2,0.5-0.1
			C57.5,16.9,57.3,17.4,57.1,18.2L57.1,18.2z M53.9,72.2c-0.4-0.5,0.3-0.9,0.4-1.3c0-0.1,0.1-0.1,0.1-0.1c0.9-0.3,0.9-0.3,0.7-1.4
			c1.2,0.1,1.2,0.1,0.7,1.4c-0.2,0.5-0.5,0.8-0.7,1.1C54.7,72.4,54.2,72.5,53.9,72.2L53.9,72.2z M54.2,81.7
			c-0.3-0.1-0.5-0.3-0.6-0.6c-0.1-0.3,0.3-0.2,0.4-0.3c0.4-0.1,0.6,0.2,0.7,0.5C54.8,81.6,54.3,81.4,54.2,81.7z M54.5,79.9
			c-0.3-0.2-0.5-0.6-0.4-0.7c0.5-0.4,1-0.8,1.6-1.1c0.2-0.1,0.4,0.2,0.4,0.4C56,78.8,54.7,80,54.5,79.9L54.5,79.9z M57.1,87.5
			c-0.4-0.4-0.6-0.8-0.7-1.2c-0.1-0.3,0.1-0.4,0.4-0.4c0.6,0.1,0.6,0.6,0.7,1C57.6,87.2,57.4,87.4,57.1,87.5L57.1,87.5z M57.9,84.7
			C57,84,57,82.8,56.4,81.9C58.4,82.6,58.7,83.2,57.9,84.7z M59.6,84.6c-0.2,0.5-0.6,0.5-1.1,0.4c0.2-0.5,0.3-0.9,0.9-0.8
			C59.5,84.1,59.6,84.4,59.6,84.6z M60.3,82.6c-0.3,0-0.4-0.2-0.4-0.5c0-0.2,0.2-0.4,0.4-0.4c0.3-0.1,0.3,0.2,0.3,0.4
			C60.5,82.4,60.5,82.6,60.3,82.6z M60.9,81.2c-0.2,0.1-0.3-0.2-0.4-0.4c0.1-0.2,0.2-0.4,0.4-0.4c0.2-0.1,0.4,0.2,0.4,0.3
			C61.1,80.9,61,81.1,60.9,81.2z M62.4,88.4c-0.4-0.1-0.5-0.3-0.5-0.6c-0.1-0.4,0.2-0.4,0.4-0.4c0.3,0,0.7,0.1,0.6,0.5
			C62.9,88.1,62.6,88.3,62.4,88.4L62.4,88.4z M63.6,85.9c0.2-0.1,0.3,0.1,0.3,0.2c0.1,0.2,0.1,0.4-0.2,0.4c-0.3,0.1-0.4-0.1-0.4-0.2
			C63.3,86.1,63.5,86,63.6,85.9z M63.6,90.6c-0.1-0.1-0.1-0.2-0.1-0.3c0.1-0.4,0.3-0.4,0.6-0.3L63.6,90.6L63.6,90.6z M63.5,81.2
			c-0.1-0.1-0.1-0.3-0.1-0.4c0.1-0.2,0.2-0.3,0.3-0.4c0.1,0.2,0.3,0.4,0.3,0.6C64.1,81.1,63.9,81.3,63.5,81.2L63.5,81.2z M63.9,79.1
			c-0.3,0.1-0.4-0.4-0.4-0.7c-0.1-0.5,0.2-0.9,0.7-1c0.4-0.1,0.5,0.3,0.5,0.6C64.5,78.5,64.5,79.1,63.9,79.1z M64.6,90.4
			c0.4-0.3,0.8-0.2,1.1-0.1C65.3,90.6,65.1,90.5,64.6,90.4z M66.4,77.5c-0.2-0.1-0.5-0.3-0.3-0.5c0.2-0.2,0.1-0.6,0.4-0.6
			c0.4,0.1,0.2,0.4,0.2,0.6C66.7,77.3,66.8,77.6,66.4,77.5z M65,68.9c-0.2-0.2-0.3-0.5-0.3-0.7c0-0.3,1.8-1.1,2.1-0.9
			c0.1,0.1,0.2,0.2,0.3,0.2C67.1,67.9,65.2,69.1,65,68.9z M67.5,85.6c-0.1,0.1-0.4-0.3-0.3-0.5c0.1-0.4,0.3-0.7,0.7-0.8
			c0.2-0.1,0.3,0.2,0.5,0.4C68.1,85.1,67.8,85.4,67.5,85.6z M67.9,71.1c0-0.8,0.7-0.9,1.2-1.1c0.2-0.1,0.4,0,0.4,0.4
			c-0.2,0.5-0.6,1-1.2,1.2C68.1,71.7,67.9,71.3,67.9,71.1L67.9,71.1z M69.3,88.6c-0.4-0.5-0.7-0.8-0.9-1.3c-0.1-0.2,0.6-0.7,0.8-0.7
			c0.4,0.1,0.6,0.6,0.7,1C70,88.1,69.5,88.2,69.3,88.6z M69.5,66.9c-0.4-0.4-1.5-0.3-1.5-1.1c-0.1-0.5,0.2-1.2,0.9-1.4
			c0.1-0.1,1.4,1.9,1.3,2C70,66.8,69.9,67.1,69.5,66.9L69.5,66.9z M71.7,86.5c-0.1-0.1-0.3-0.2-0.3-0.3c-0.1-0.2,0-0.3,0.2-0.4
			c0.4-0.3,0.8-0.5,1.5-0.8C72.8,86,72,86,71.7,86.5L71.7,86.5z M95.9,54.9c0.1,0.3,0.6,0.1,0.6,0.5c0,0.2-0.2,0.4-0.3,0.4
			c-0.3,0-0.5-0.2-0.8-0.6L95.9,54.9z M91.5,49.6c0.1,0.4,0.2,0.7,0,0.9C91.3,50.3,91.3,50,91.5,49.6z M91,55.5c0.2,0,0.4,0,0.3,0.3
			c-0.1,0.2-0.2,0.4-0.5,0.5c-0.2-0.1-0.2-0.2-0.2-0.4C90.6,55.6,90.8,55.5,91,55.5z M90.4,58.3c0.3,0.1,0.3,0.2,0.3,0.4
			c-0.1,0.3-0.2,0.4-0.5,0.4c-0.3-0.1-0.2-0.3-0.2-0.5C89.9,58.4,90.1,58.3,90.4,58.3z M89,42.5c-0.2-0.1-0.5-0.3-0.4-0.5
			c0.3-0.5,0.7-0.2,1.4-0.3C89.5,42.1,89.5,42.7,89,42.5L89,42.5z M90.1,50.8c-0.3-1-0.1-1.6,0-2.3V50.8z M90.4,53.9
			c0.2-0.1,0.3,0.1,0.3,0.3c0,0.3-0.1,0.5-0.5,0.4c-0.1,0-0.2,0-0.2-0.2C90,54.1,90.1,53.9,90.4,53.9z M90.8,29.1
			c-0.4,0.2-0.7,0.2-1,0C90.1,28.9,90.4,29,90.8,29.1z M89.4,23.3c0.2,0.3,0.6,0.4,0.6,0.8c0,0.2-0.1,0.4-0.3,0.3
			c-0.3-0.1-0.5-0.3-0.6-0.6L89.4,23.3z M84.1,18c0.4-0.1,0.6,0.2,0.8,0.4c0.6,0,1.2-0.1,1.7,0.3c-0.7,0.9-1.1,0.9-1.7-0.1
			c-0.1,0-0.1,0-0.1,0c-0.3-0.1-0.6,0.2-0.8-0.2C84,18.3,84,18.1,84.1,18L84.1,18z M85.9,63.6c0.3,0,0.4,0.1,0.4,0.4
			c0,0.3,0.1,0.5-0.3,0.6c-0.3,0-0.4-0.2-0.4-0.4C85.5,63.8,85.6,63.6,85.9,63.6z M85.5,23.3c0.2-0.5,0.3-0.7,0.5-0.7
			c0.2,0,0.2,0.2,0.3,0.3c0,0.3-0.2,0.5-0.3,0.6C85.8,23.5,85.6,23.3,85.5,23.3z M85.4,44.3c0,0.3-0.3,0.4-0.6,0.5
			c-0.3,0.1-0.4-0.1-0.4-0.3c0-0.3,0.3-0.4,0.5-0.5C85.2,43.9,85.4,44.1,85.4,44.3L85.4,44.3z M82.6,15.1c0.4-0.2,0.3,0.2,0.5,0.4
			c-0.2,0.4-0.4,0.9-0.9,1.1c-0.3,0.1-0.7-0.2-0.6-0.5C81.7,15.6,82.1,15.3,82.6,15.1z M81.3,21.2c0.2-0.9,0.1-1.8,1.2-2.3
			s1.5,0.2,2,0.7c0.2,0.2,0.1,0.3-0.1,0.5c-0.2,0.2-0.4,0.3-0.6,0.1c-0.4-0.3-0.7-0.5-1.2-0.9c-0.2,0.7-0.5,1.4-0.6,2
			c-0.1,0.4-0.5,0.5-0.6,0.5C81.1,21.8,81.3,21.4,81.3,21.2L81.3,21.2z M81.9,33.8c-0.4,0.3-0.8,0.7-1.4,0.9
			c0.3-0.6,0.2-1.4,1.2-1.3c0.5-0.4,0.7,0.3,1,0.4H81.9L81.9,33.8z M81.7,48.6c-0.3,0-0.5-0.1-0.5-0.4c0-0.3,0.2-0.5,0.4-0.5
			c0.3-0.1,0.3,0.3,0.4,0.5C82,48.4,81.9,48.6,81.7,48.6z M77.9,14.6c0.6-0.3,0.2,0.7,0.6,0.9c0.4,0.5,0.2,0.9,0.2,1.5
			c-0.6-0.4-0.3-0.9-0.5-1.2C78,15.2,77.4,14.8,77.9,14.6z M77.6,18.6c0.9-0.5,1.4-1.3,1.9-2.1c0.3-0.6,0.9-0.5,1.3,0.1
			c0.4,0.4,0.8,0.9,0.2,1.3c-0.5,0.3-0.7,0.7-1,1.5c-0.1-0.7-0.2-1.1-0.7-0.9c-0.5,0.1-1,0.2-1.3,0.6c-0.2,0.2-0.4,0.2-0.5,0.1
			C77.2,18.8,77.4,18.7,77.6,18.6z M79.1,20.4c-0.1,0.1-0.2,0.2-0.3,0.3c-0.2-0.1-0.2-0.2-0.2-0.4c0-0.2,0.1-0.3,0.3-0.3
			C79.1,20.1,79.2,20.2,79.1,20.4z M77.8,21.4c-0.1-0.1-0.3-0.3-0.3-0.4c0-0.2,0.2-0.3,0.4-0.3c0.2,0.1,0.3,0.2,0.3,0.4
			C78.2,21.3,78,21.4,77.8,21.4z M78,41.6c0,0.2-0.1,0.3-0.3,0.3c-0.3,0-0.4-0.1-0.4-0.4c0-0.2,0.2-0.3,0.3-0.3
			C77.9,41.2,78,41.4,78,41.6z M77.7,33.3c-0.5,0.1-0.7,0.2-1-0.1C77,33.1,77.3,33.1,77.7,33.3z M76.3,32.3
			c-0.5,0.3-0.9,0.1-1.7,0.1C75.4,32.2,75.8,32.1,76.3,32.3z M74,19.1c0.2,0.9,1.5,1.3,0.9,2.6C73.8,21.1,73.9,20.1,74,19.1z
			 M75.5,28.7c0.5-0.3,0.8-0.2,1.3-0.1C76.3,28.8,75.9,28.9,75.5,28.7z M76.1,16.3c0.2-0.2,0.4-0.1,0.6,0.1c0.5,0.7,0.2,1.1-0.4,1.7
			C76.2,17.4,75.5,16.9,76.1,16.3z M75.9,19c0.1,0.3-0.2,0.5-0.4,0.7c-0.4-0.2-0.8-0.5-0.9-0.9c-0.1-0.2,0.1-0.5,0.4-0.5
			C75.4,18.4,75.7,18.7,75.9,19z M74.1,7.8c0.2,0,0.2,0.2,0.2,0.3c0.1,0.3-0.2,0.4-0.3,0.6c-0.1-0.2-0.3-0.3-0.3-0.4
			C73.6,8.1,73.8,7.8,74.1,7.8z M72.8,11.9c0.3-0.4,0.5,0.2,0.7,0.4c0.3,0.3,0.7,0.4,0.6,0.9c0.4-0.1,0.7-0.6,1,0
			c0.3,0.4-0.1,0.6-0.3,0.7c-0.7,0.5-0.7-0.3-0.9-0.5c-0.2,0.1-0.5,0-0.7,0.2c-0.6,0.4-0.9,0-1.1-0.4C72,12.6,72.5,12.2,72.8,11.9
			L72.8,11.9z M73,22c-0.1,0.1-0.2,0.2-0.3,0.2c-0.3,0-0.5-0.2-0.4-0.4c0-0.1,0.2-0.3,0.3-0.3C72.8,21.6,72.9,21.7,73,22z
			 M70.2,38.2c0.2-0.1,0.4,0.1,0.4,0.4c-0.2,0.1-0.3,0.3-0.5,0.4c-0.3,0.1-0.3-0.2-0.3-0.3C69.8,38.4,70,38.3,70.2,38.2L70.2,38.2z
			 M68.6,34.9c0.2,0.6,0.2,0.9,0.1,1.2C68.5,35.7,68.5,35.4,68.6,34.9z M67.7,8.8c0.2,0,0.2,0.2,0.2,0.4c0,0.2-0.1,0.3-0.3,0.3
			c-0.2,0-0.2-0.2-0.3-0.3C67.4,8.9,67.5,8.8,67.7,8.8L67.7,8.8z M58.5,25.5c0.2,0.6,0.2,1.2,0,1.8C58.3,26.7,58.4,26.1,58.5,25.5z
			 M58.5,35c-0.2-0.6-0.2-0.9,0-1.3C58.7,34.1,58.7,34.5,58.5,35z M60.4,38.2c-0.2-0.1-0.4-0.3-0.6-0.4c-0.3-0.3-0.9-0.5-0.7-0.8
			c0.4-0.5,1-0.2,1.5-0.1c0.4,0,0.6,0.6,1,0.6C61.6,38.1,60.7,38.5,60.4,38.2L60.4,38.2z M61.5,16.8c-0.2-0.5-0.8-0.7-0.3-1.2
			c0.1-0.1,0.3-0.4,0.6-0.1C62.1,16.1,61.7,16.4,61.5,16.8L61.5,16.8z M62.5,23.7c0.5-0.3,0.8-0.2,1.1,0H62.5z M64.7,16.8
			c0.1-0.4,0.3-0.3,0.5-0.3c1.7-0.2,2.4,0.3,2.7,2c-0.7-0.9-1.3-1.5-2.2-0.6c-0.3,0.3-0.4-0.1-0.6-0.3
			C64.7,17.5,64.6,17.2,64.7,16.8z M66,26.7c0.4-0.4,1.1,0.1,1.3-0.6l0.2,0.2C67.1,27,66.5,26.6,66,26.7z M65.9,32.1
			c-0.2-0.4-0.2-0.8,0.1-1.4C66,31.4,66.1,31.7,65.9,32.1z M66.2,36.6c0.2,0.2-0.2,0.4-0.4,0.5c-0.6,0.3-0.6-0.3-0.9-0.7
			C65.5,36.4,65.9,36.2,66.2,36.6L66.2,36.6z M67.9,39.4c-0.5,0.5-1,0.8-1.7,1c-0.6-0.3-0.9-0.9-1-1.4c-0.1-0.5,0.6-0.3,0.9-0.4
			c0.4-0.1,0.9,0,1.2-0.1c0.3-0.1,0.6-0.3,0.7,0C68.2,38.8,68.2,39.2,67.9,39.4L67.9,39.4z M70.9,43.4c-0.7-0.5-1.7,0.6-2.3-0.5
			c-0.5-0.8-0.4-1.5,0.4-2.3l0.1,2c0.5,0.1,0.8-0.3,1.1-0.4c-0.1-0.4,0.2-0.6,0.3-0.9c0.1,0.1,0.2,0.1,0.3,0.2
			c0.2,0.4-0.1,0.5-0.4,0.7c0,0.3-0.1,0.7,0.4,0.8C71.1,43,70.9,43.4,70.9,43.4L70.9,43.4z M73.1,41.3c-0.5-0.6-0.1-1,0.4-1.4
			c0.4,0.5,0.8,0.9,0.2,1.4C73.4,41.5,73.3,41.5,73.1,41.3z M74.3,44.9c-0.2,0.3-0.5,0.3-0.8,0.1c-0.2-0.2-0.2-0.4,0.1-0.6
			c0.1-0.4,0.3-0.8,0.3-1.2c0.1-0.3,0.1-0.6,0.4-0.6c0.2,0.1,0.3,0.4,0.3,0.7C74.5,43.9,74.6,44.4,74.3,44.9L74.3,44.9z M74.9,47.5
			c-0.1-0.2-0.3-0.3-0.3-0.4c-0.1-0.2,0.1-0.4,0.3-0.4c0.2,0,0.3,0.1,0.3,0.3C75.1,47.1,75,47.3,74.9,47.5z M74.4,39.9
			c-0.5-1,0.6-1.5,0.6-2.3l0,0l0,0l0,0l0,0l0,0l0,0c-0.9,0.5-1.4,1.4-2.1,2c-0.4,0.3-0.7,0.6-1.1,0.7c-0.5,0.2-0.9,0.4-1.3-0.1
			c-0.2-0.3-0.4-0.6-0.2-0.7c0.4-0.3,0.9,0,1.3,0.1c0.2-0.9-0.3-2.1,1.3-2.3c0.3-0.1,0.1-0.5-0.1-0.8c-0.4-0.6-0.8-1.2-0.5-1.9
			c0.1-0.3-0.2-0.7,0.3-0.7c0.4-0.1,0.7,0.1,0.9,0.4c0.4,0.7,1,1.2,1.5,1.8c0.5,0.5-0.3,1,0.1,1.5c0,0,0,0,0.1,0l0,0l0,0l0,0l0,0
			l0,0c0.3-0.2,0.5-0.7,0.9-0.5c0.3,0.2,0.1,0.6,0.1,0.9c-0.2,0.9,0.4,0.3,0.6,0.2l0.1-0.2c0.2-0.4,0.6-0.4,0.9-0.4
			c0.1,0,0.1,0.2,0.1,0.3c-0.2,0.6-0.6,0.2-0.9,0.3c0.1,0.9-0.2,1.3-1.1,1.1C75.1,39.2,74.9,39.7,74.4,39.9L74.4,39.9z M75.8,43.8
			c0.3-0.2,0.5-0.4,0.7-0.4c0.4-0.1,0.3,0.3,0.3,0.5c0.1,0.3,0.1,0.5-0.3,0.5C76.2,44.2,76,44,75.8,43.8L75.8,43.8z M77.3,48.1
			c-0.6,0.1-1-0.1-0.9-0.4c0.1-0.4,0.7-0.4,1-0.5c0.3-0.1,0.8,0.1,0.7,0.4C78,48.1,77.5,48.1,77.3,48.1L77.3,48.1z M75.5,89.4
			c0.2,0.1,0.3,0.2,0.3,0.2c0.1,0.2-0.2,0.2-0.3,0.3c-0.1,0-0.1-0.1-0.2-0.1L75.5,89.4L75.5,89.4z M76.7,94.2c-0.4,0.4-0.7,0.2-1,0
			c-0.5,0.2-0.6-0.2-0.7-0.5l1.5-1.3C76.8,93,77.4,93.5,76.7,94.2z M78.7,89.3c-0.4-0.2-0.8-0.5-0.8-0.9c0-0.4,0.4-0.7,0.8-0.7
			c0.5-0.1,0.7,0.4,0.7,0.7C79.3,88.8,79,89.1,78.7,89.3L78.7,89.3z M78,36.8c-0.2-0.2,0-0.4,0.2-0.6c0.4-0.3,0.7,0,0.8,0.2
			c0.6,0.8,1.4,1.6,0.9,2.8C79.1,38.6,78.7,37.6,78,36.8z M79.8,50.1c0.7-0.1,0.5,0.3,0.5,0.6C79.9,50.6,80.1,50.1,79.8,50.1z
			 M79.9,21.6c-0.4,0-0.3-0.3-0.3-0.5c-0.1-0.5,0.2-0.7,0.6-0.8c0.1-0.1,0.6,0.1,0.5,0.4C80.6,21.1,80.2,21.4,79.9,21.6L79.9,21.6z
			 M82.3,83.5c-0.4-0.2-0.5-0.4-0.3-0.7c0.1-0.1,0.3-0.1,0.3-0.1C82.5,82.9,82.4,83.2,82.3,83.5z M82.4,58.5c-0.7,0.3-1.3,0.3-2,0.2
			c0.4-1,1.1-1.1,2-1.1c0.3,0,0.4,0.2,0.5,0.4C82.8,58.3,82.7,58.4,82.4,58.5z M82.9,81.4c-0.2-0.5-0.3-0.7,0.1-1
			c0.1-0.1,0.2,0.1,0.3,0.1C83.4,80.8,83.3,81.1,82.9,81.4z M82.8,64c0-0.1,0.1-0.1,0.1-0.2c0.2-0.2,0.5-0.3,0.6-0.2
			c0.5,0.5,1.2,0.5,1.5,1.1c0.2,0.4-0.2,0.6-0.3,0.8c0,0.1-0.1,0.1-0.2,0.1C84.4,65.6,82.8,64.2,82.8,64z M85.7,68.6
			c-0.2-0.5-0.5-0.8-1.1-0.7c-0.4,0.1-0.5-0.2-0.4-0.5c0.1-0.2,0.2-0.6,0.6-0.3c0.4,0.3,0.9,0.3,1.4,0.4c0.8,0.3,0.1,1,0.4,1.4
			C86.1,69,85.8,68.8,85.7,68.6L85.7,68.6z M86.7,84.5c-0.1,0.2-0.2,0.3-0.3,0.3c-0.2-0.1-0.4-0.2-0.4-0.4c0-0.3,0.2-0.3,0.4-0.3
			C86.7,84,86.8,84.2,86.7,84.5L86.7,84.5z M86.8,25.6c-0.2-0.5-0.7-0.8-0.4-1.3c0.1-0.1,0.4-0.1,0.5,0.1
			C87.1,24.7,87.5,25.1,86.8,25.6L86.8,25.6z M88.2,87.1c-0.2,0.2-0.5,0.3-0.6,0.2c-0.4-0.4,0.1-0.7,0.2-1.4
			C87.9,86.5,88.6,86.6,88.2,87.1L88.2,87.1z M88.9,21.8c0.3-0.1,0.4,0.2,0.4,0.5c0,0.3-0.2,0.6-0.5,0.6c-0.3,0-0.5-0.2-0.5-0.6
			C88.2,21.8,88.7,21.8,88.9,21.8L88.9,21.8z M88.9,82c-0.3-0.1-0.5-0.2-0.5-0.5c0.1-0.3,0.2-0.5,0.5-0.5s0.5,0.2,0.5,0.5
			C89.4,81.9,89.1,81.9,88.9,82z M90.2,81.2c-0.2,0.1-0.3-0.2-0.3-0.4c0-0.2-0.1-0.5,0.3-0.5c0.4,0,0.5,0.2,0.6,0.4
			C90.8,81.1,90.4,81.1,90.2,81.2z M91.7,78.3c-0.2-0.2-0.4-0.2-0.3-0.5c0.1-0.2,0.2-0.3,0.4-0.4c0.1,0.2,0.3,0.3,0.3,0.5
			C92,78,91.8,78.1,91.7,78.3L91.7,78.3z M91.6,69.8c-0.3-0.5-0.7-1-1-1.5C90.5,68,90.8,67.9,91,68c0.6,0.3,1.3,0.5,1.5,1.1
			C92.6,69.3,92,69.5,91.6,69.8z M94.3,57.7c-0.1,0.6-0.5,1.2-0.9,1.4c-0.3,0.2-0.5-0.5-0.8-0.7c0.3-0.6,0.7-0.9,1.2-1.2
			C93.9,57.4,94.4,57.3,94.3,57.7L94.3,57.7z M93.2,55.5c0-0.3,0.3-0.3,0.4-0.2c0.3,0.1,0.3,0.3,0.3,0.5s-0.1,0.4-0.3,0.4
			C93.3,56,93.1,55.8,93.2,55.5L93.2,55.5z M93.5,35.6c-0.2-0.4-0.6-0.6-0.3-1c0.3-0.4,0.7-0.3,1.1-0.2
			C94.1,34.9,93.9,35.3,93.5,35.6z M95.2,65.4c0.3-0.4,0.7-0.6,1.1-0.3c0.1,0,0.1,0.2,0.1,0.2C96.1,65.7,95.6,65.3,95.2,65.4z
			 M96.1,63.5c-0.2-0.1-0.2-0.2-0.2-0.4c0-0.1,0.1-0.2,0.3-0.2c0.2,0.1,0.2,0.2,0.2,0.4C96.4,63.5,96.3,63.6,96.1,63.5L96.1,63.5z
			 M96.2,57.1c-0.3-0.1-0.2-0.3-0.3-0.5c0-0.2,0-0.4,0.3-0.4c0.2,0.1,0.4,0.2,0.4,0.4C96.6,56.8,96.4,57,96.2,57.1z"/>
		<path class="st0" d="M49.6,102.3V88c-0.1,0.1-0.2,0.2-0.2,0.2c-0.7,0.4-1.2,0.4-1.9-0.2c0.8,0.1,1.1-0.4,1.7-0.5
			c0.2,0,0.4-0.1,0.5,0.1v-9.5c-0.5-0.3-0.8-0.6-1.1-1l-1.8-2.7l-0.4,0.3c-0.3,0.2-0.6,0.1-0.8-0.2l0,0l-0.7-1.1l-2.5,1.4
			c0.2,0.2,0.3,0.4,0.3,0.7c0,0.4-0.4,0.6-0.7,0.8c-0.4-0.3-0.7-0.5-1-0.8l-1.1,0.6c0,0.1,0,0.1,0,0.2c-0.1,0-0.1-0.1-0.2-0.1
			l-1.5,0.8c0.1,0.1,0.1,0.3,0.1,0.4c0,0.2,0,0.5-0.3,0.4c-0.2-0.1-0.4-0.2-0.4-0.5l-0.8,0.4c0,0.1,0,0.1,0,0.2
			c-0.1,0.2-0.1,0.6-0.5,0.6c-0.1-0.1-0.2-0.2-0.4-0.3l-1.1,0.6c-0.4,0.3-1,0.1-1.2-0.3L33.2,78l-4.4,2.6l-0.2-0.3
			c-0.4,0.4-0.8,0.8-1.1,1.2c0.8-0.4,1.3-0.3,2.2,0.4c-0.9,0.5-1.1,0.5-2.3-0.2c-0.9,1.2-1.4,2.6-1.2,3.9c0.1,0.6,0.6,1.4,1,2.3
			c1.3,2.4,2.8,5.5,1,9c-0.4,0.8-0.1,1.7,0.3,1.9c6.1,3,12.7,4.8,19.4,5.2C48.4,103.9,49.6,103.9,49.6,102.3L49.6,102.3z M44.6,93.5
			c-0.3,0-0.3-0.3-0.4-0.5c0.1-0.3,0.3-0.4,0.5-0.3c0.2,0.1,0.4,0.1,0.4,0.4C45,93.3,44.9,93.5,44.6,93.5L44.6,93.5z M46.8,91.2
			c-0.2-0.1-0.5-0.2-0.5-0.4c-0.1-0.4,0.3-0.6,0.5-0.6c0.2-0.1,0.4,0.2,0.4,0.5C47.2,90.9,47,91,46.8,91.2z M47.1,77.8
			c0.4,0,0.3,0.3,0.3,0.5c0,0.3-0.1,0.5-0.4,0.5c-0.3-0.1-0.3-0.3-0.3-0.5C46.7,78,46.8,77.8,47.1,77.8z M47,82
			c-0.3,1,1.6,1.2,0.4,2.1c-0.2,0.2-0.4,0.7-0.7,0.3C46,83.7,46.1,83,47,82L47,82z M46.1,93.6c0.2,0.1,0.6,0,0.6,0.4
			c0,0.3-0.2,0.4-0.4,0.5c-0.4-0.1-0.5-0.3-0.6-0.6C45.6,93.7,45.9,93.5,46.1,93.6z M45.7,76.7c0.1,0.2-0.1,0.3-0.3,0.4
			c-0.3,0.1-0.5-0.2-0.6-0.4c-0.1-0.3,0.2-0.5,0.4-0.5C45.6,76.1,45.5,76.6,45.7,76.7L45.7,76.7z M44.8,75c0.3,0.1,0.4,0.3,0.4,0.5
			c0,0.2-0.1,0.4-0.4,0.4c-0.3-0.1-0.3-0.3-0.4-0.5C44.6,75.1,44.6,74.9,44.8,75z M44.7,89.2c0.2,0,0.3,0.2,0.4,0.4
			c0.1,0.3-0.2,0.4-0.4,0.5c-0.3,0.1-0.3-0.2-0.3-0.3C44.4,89.5,44.3,89.2,44.7,89.2z M43.2,79.7c0.5,0.1,0.9,0.3,1.2,0.8
			c-0.2,0.4-0.5,0.8-0.9,0.8c-0.6,0-0.8-0.6-0.9-1.1C42.4,79.6,43,79.6,43.2,79.7L43.2,79.7z M41.2,80.2c-0.3-0.3-0.8-0.4-0.9-0.9
			c0-0.1,0.4-0.4,0.5-0.3c0.4,0.1,0.7,0.3,0.8,0.7C41.6,79.8,41.3,80,41.2,80.2z M40.7,77c0.5,0.2,0.9,0.5,1,1
			c-0.1,0.4-0.1,0.8-0.4,0.8c-0.7-0.2-0.9-0.8-1-1.3C40.1,77,40.5,76.9,40.7,77z M41,84.2c-0.4,0.3-0.6,0.7-1.1,0.4
			c-0.2-0.2-0.1-0.3,0-0.5C40.3,83.6,40.6,83.9,41,84.2L41,84.2z M39.3,77.5c0.3,0.1,0.7,0.3,0.7,0.7c-0.1,0.4-0.3,0.7-0.7,0.7
			c-0.3-0.1-0.6-0.3-0.6-0.8C38.9,77.7,39,77.4,39.3,77.5z M37.9,86.1c0-0.3,0.1-0.8,0.1-1.3c0-0.3,0-0.7,0.4-0.7
			c0.4,0.1,0.9,0.2,0.8,0.8c-0.1,0.5-0.3,1-0.4,1.5c-0.1,0.3,0,0.8-0.5,0.7C37.9,87.1,37.7,86.7,37.9,86.1L37.9,86.1z M36.6,99.4
			c-0.4,0.2-0.8,0.2-1.3,0C35.9,99.2,36.2,99.2,36.6,99.4z M36,82.8c0.2-0.1,0.4,0.2,0.4,0.5c0.1,0.5-0.2,0.8-0.6,0.9
			c-0.3,0.1-0.4-0.3-0.4-0.5C35.3,83.2,35.7,82.9,36,82.8z M35.3,88.7l0.4,0.5l-0.4,0.4c-0.1-0.2-0.4-0.2-0.3-0.4
			C35,88.9,35.2,88.8,35.3,88.7L35.3,88.7z M32.6,97.6c-0.3-0.7-0.3-1,0-1.7V97.6z M32.3,89.1c-0.3,0-0.5-0.2-0.5-0.4
			s0.1-0.5,0.4-0.4c0.2,0.1,0.5,0.1,0.5,0.4C32.6,88.9,32.5,89,32.3,89.1L32.3,89.1z M33.1,87.2c-0.1,0-0.1,0-0.1-0.1
			c-0.3-0.5-0.5-1-0.1-1.5c0.2-0.2,0.3-0.1,0.4,0.1C33.5,86.2,33.5,86.7,33.1,87.2L33.1,87.2z M32.5,80.4c0.1-0.4,0.4-0.9,0.7-0.9
			c0.5-0.1,0.5,0.5,0.5,0.9s-0.3,0.7-0.6,0.9C32.7,81,32.4,80.7,32.5,80.4z M32.5,82.9c0.7,0.1,1.1,0.5,1.3,1
			c0.2,0.6-0.6,0.6-0.9,0.8c-0.5-0.2-1-0.3-1.4-0.6C32,83.8,31.4,82.8,32.5,82.9z M30.5,87.8c0.4,0,0.6,0.2,0.6,0.6
			c0,0.3-0.2,0.5-0.5,0.6c-0.3-0.1-0.5-0.4-0.5-0.7C30.1,88,30.1,87.7,30.5,87.8L30.5,87.8z M29.9,90.7c0.1-0.5,0.4-0.9,0.8-1.1
			c0.3-0.1,0.4,0.3,0.3,0.5c-0.1,0.5-0.5,0.8-0.8,1.2C29.9,91.2,29.9,90.9,29.9,90.7z M29.5,87.3c0.2,0,0.4,0,0.4,0.3
			c-0.1,0.2-0.2,0.6-0.4,0.6c-0.3,0.1-0.4-0.2-0.5-0.4C28.9,87.3,29.3,87.3,29.5,87.3L29.5,87.3z M28.7,90c-0.2,0.1-0.2-0.1-0.2-0.3
			c0-0.2,0-0.3,0.2-0.4c0.2-0.1,0.3,0.1,0.3,0.3C29,89.8,28.9,89.9,28.7,90z"/>
	</g>
	<path class="st0" d="M112.4,91.7c0-1.1,0.5-2.1,1.2-2.8l38-36.6l-38-36.6c-1.5-1.4-1.6-3.9-0.2-5.5c0.1-0.1,0.2-0.2,0.4-0.3
		c1.8-1.5,4.5-1.5,6.2,0.1l0,0L161,49.4c1.5,1.4,1.6,3.9,0.2,5.4c-0.1,0.1-0.2,0.2-0.2,0.2L120,94.5c-1.7,1.6-4.4,1.7-6.2,0.2l0,0
		C112.9,93.9,112.4,92.8,112.4,91.7z"/>
	<path class="st0" d="M168.1,81.5c0-0.8,0.3-1.5,0.9-2.1l28.2-27.1L169,25.2c-1.2-1.1-1.2-2.9-0.1-4.1c0.1-0.1,0.2-0.2,0.2-0.2
		c1.3-1.2,3.4-1.1,4.6,0.1l0,0l30.3,29.2c1.2,1.1,1.2,2.9,0.2,4c-0.1,0.1-0.1,0.1-0.2,0.2l-30.3,29.2c-1.3,1.2-3.3,1.2-4.6,0.1l0,0
		C168.5,83.1,168.1,82.3,168.1,81.5z"/>
	<path class="st0" d="M221.6,74.8c0-0.6,0.3-1.2,0.7-1.6L244,52.3l-21.7-20.9c-0.9-0.8-0.9-2.2-0.2-3.1c0.1-0.1,0.2-0.2,0.3-0.2
		c1-0.9,2.6-0.9,3.6,0.1l0,0l23.3,22.5c0.9,0.9,0.9,2.2,0.1,3.2c0,0.1-0.1,0.1-0.1,0.1L226,76.4c-1,0.9-2.5,1-3.6,0.1l0,0
		C221.9,76,221.6,75.4,221.6,74.8z"/>
</g>
</svg>
