<svg width="100" height="100" viewBox="0 0 100 100" fill="none" xmlns="http://www.w3.org/2000/svg">
<path d="M52.2771 27.6992C55.8233 23.0228 60.7534 23 60.7534 23C60.7534 23 61.4867 27.3966 57.9638 31.632C54.2021 36.1544 49.9265 35.4144 49.9265 35.4144C49.9265 35.4144 49.1236 31.8577 52.2771 27.6992V27.6992ZM50.3775 38.4942C52.2018 38.4942 55.5877 35.9851 59.995 35.9851C67.5812 35.9851 70.5657 41.386 70.5657 41.386C70.5657 41.386 64.7287 44.3719 64.7287 51.617C64.7287 59.7901 72 62.6068 72 62.6068C72 62.6068 66.9171 76.9207 60.0514 76.9207C56.8981 76.9207 54.4465 74.7946 51.124 74.7946C47.7381 74.7946 44.3781 77 42.1897 77C35.9204 77.0002 28 63.4219 28 52.5073C28 41.7688 34.7041 36.1356 40.9922 36.1356C45.0801 36.1356 48.2523 38.4942 50.3775 38.4942V38.4942Z" fill="#CCCCCC"/>
</svg>
